<?xml version="1.0" encoding="UTF-8"?>
<svg id="Layer_2" data-name="Layer 2" xmlns="http://www.w3.org/2000/svg" viewBox="0 0 760.61 187">
  <defs>
    <style>
      .cls-1 {
        fill: #ca2026;
      }

      .cls-2 {
        fill: #fcfdff;
      }
    </style>
  </defs>
  <g id="VHQ_LAG_W">
    <g>
      <g>
        <g>
          <path class="cls-2" d="M301.63,58.13c-.01.73-.02,1.47-.02,2.22v11.17c0,13.55.17,23.71.52,30.48h5.48v21h30v-35h-19v-19h56v4h-7v22h-15v7h7v42h-80v-22h-9v-3h4v-2h5v-8h-14v-18h6.71c-.14-5.25-.21-8.29-.21-9.12,0-4.11.03-8,.09-11.68M272.2,70.38c.39-24.71,2.1-39.94,5.13-45.7.97-4.11,3.86-8.67,8.67-13.69C293.03,3.74,304.79.12,321.29.12h.21c22.34,0,36.02,7.28,41.03,21.84,2.3,5.43,3.45,13.06,3.45,22.88l-24.33,3.24-.31-.52v-.52c0-11.77-3.97-18.81-11.9-21.11-2.44-.63-5.39-1.04-8.87-1.25-8.63,0-14.2,4.63-16.71,13.9-1.33,5.65-2.06,12.21-2.17,19.71M300.61,146h31v3h-31v-3ZM304.61,94h1v7h-1v-7Z"/>
          <path class="cls-2" d="M367.61,62V1h50.23c16.81,0,27.68,5.98,32.6,17.94,2.37,6.89,3.18,13.08,3.18,21.15v6.05s-2.54,25.33-8.83,32.86h-11.17v5h17v36h-10v5h15v21h-31v-33h-12v-22h-21v37h5v21h-29.48c-.29,0-.52-.23-.52-.52v-59.48h13v-4h-13v-23M396.61,40v27h7.23c10.85,0,17.13-1.03,18.83-3.09,1.77-1.13,3.16-3.44,4.15-6.91h9.79v-5h-10v.49c-.54,3.01-.94,4.51-1.21,4.51h-13.79v-5h14.9c.34,0,.52-.14.52-.42.14-4.31.21-6.74.21-7.3,0-9.31-1.59-15.01-4.76-17.1-2.48-1.46-7.03-2.19-13.66-2.19h-12.21v15"/>
          <path class="cls-2" d="M494.61,56v17.48c0,.35-.14.52-.41.52h-3.59v74.48c0,.29-.23.52-.52.52h-23.96c-.29,0-.52-.23-.52-.52v-76.48h-7.48c-.29,0-.52-.23-.52-.52v-2.99c.07-.33.24-.49.52-.49h7.48V1.52c.07-.34.24-.52.52-.52h28.06c.28.07.42.24.42.52v54.48M479.61,68h-14v4h14v-4"/>
          <path class="cls-2" d="M538.61,29v29h39s-.03,15.78-.03,16h1.03v8h-33v30h-9v3h9v9h38v4h-3v18h-46v3h-22v-53h-3v-19h-24v-3h24v-17M509.61,57V0h73v24.48c0,.29-.23.52-.52.52h-43.48v4M510.61,74v3h12v-3h-12ZM582.61,134h1v2h-1v-2Z"/>
          <path class="cls-2" d="M581.61,0h87v25h-29v103h13v3h-13v11h-8v4h6v3h-26.48c-.29,0-.52-.23-.52-.52V25h-29V0ZM629.61,128v3h10v-3h-10Z"/>
          <path class="cls-2" d="M760.61,86h-19v-4h19v4ZM733.14,86h8.47v42s10,0,10,0v20s2,0,2,0v1h-25v-21s-14,0-14,0v-13s-33,0-33,0v30h-28v-11h10s0-4,0-4h-10v-48h4.45c15.88-52.55,24-79.55,24.34-81h25.23s25.51,85,25.51,85ZM695.09,43c0,2.13-2.74,15.13-8.23,39h-2.25s0,17,0,17h23.69c-6.28-25.75-10.51-44.56-12.69-56.46v.46s-.51,0-.51,0ZM680.61,149h-33v-2h33v2ZM681.76,126.93c1.48-2.53,2.25-3.84,2.32-3.93h1.28c.23.38.64,1.07,1.23,2.08.75,1.26,1.13,1.9,1.13,1.92h-1.41s-.54-.33-1.58-2h0c-.69,1.09-1.05,1.69-1.07,1.72-.3.52-.51.28-.51.28h-1.4s.03-.07.04-.07ZM681.85,122.93c1.48-2.53,2.25-3.84,2.32-3.93h1.28c.23.38.64,1.07,1.23,2.08.75,1.26,1.13,1.9,1.13,1.92h-1.41s-.54-.76-1.58-3h0c-.69,1.66-1.05,2.27-1.07,2.3-.3.52-.51.7-.51.7h-1.4s.03-.07.04-.07ZM681.88,118.93c1.48-2.53,2.25-3.84,2.32-3.93h1.28c.23.38.64,1.07,1.23,2.08.75,1.26,1.13,1.9,1.13,1.92h-1.41s-.54-1.1-1.58-3h0c-.69,1.32-1.05,1.92-1.07,1.95-.3.52-.51,1.05-.51,1.05h-1.4s.03-.07.04-.07Z"/>
        </g>
        <g>
          <path class="cls-2" d="M274.41,124.98h2.59c.28,0,.5.11.67.32.08.12.12.24.12.35v.04c0,.19-.1.36-.29.51.15.12.24.25.26.37.02.04.02.09.02.16v.06c0,.25-.15.45-.44.59-.07.03-.16.05-.27.07h-2.67s-.01,0-.01-.01v-.56s0,0,.01,0h2.37c.12,0,.19-.04.22-.13,0-.03.01-.05.01-.06,0-.08-.04-.13-.12-.17-.02-.01-.05-.02-.09-.02h-1.72s-.01,0-.01-.01v-.51s0-.01.01-.01h1.72c.09,0,.16-.04.19-.12.01-.04.02-.06.02-.07-.03-.13-.09-.19-.18-.19,0,0-.01,0-.04,0h-2.38s-.01,0-.01-.01v-.56s0-.01.01-.01Z"/>
          <path class="cls-2" d="M274.25,129.7h.79l1.06,1.22c.7-.82,1.05-1.22,1.05-1.22h.79s0,0,0,.01v2.45s0,.01,0,.01h-.77s-.01,0-.01-.01v-1.46l-1.06,1.23h-.01s-.36-.41-1.06-1.23v1.46s0,.01-.01.01h-.77s-.01,0-.01-.01v-2.45s0-.01.01-.01Z"/>
          <path class="cls-2" d="M274.41,134.41h2.6c.29,0,.53.13.71.38.05.1.08.2.08.29v.04c0,.2-.1.37-.29.52.19.16.29.32.29.48v.11c0,.2-.11.38-.34.53-.15.07-.26.11-.33.11,0,0,0,.01-.03.01h-2.69s-.01,0-.01-.01v-2.45s0-.01.01-.01ZM275.19,135v.38h1.6c.1,0,.16-.04.2-.13,0-.04,0-.06,0-.07,0-.09-.06-.15-.17-.19h-1.65ZM275.19,135.92v.38h1.6c.1,0,.16-.04.2-.13,0-.04,0-.06,0-.06,0-.08-.04-.13-.12-.17-.02-.01-.05-.02-.09-.02h-1.6Z"/>
          <path class="cls-2" d="M274.41,139.13h2.6c.24,0,.44.09.62.27.11.12.16.26.16.4v.45c0,.23-.13.42-.38.58l-.1.04.48.73h-.01s-.94,0-.94,0c-.02-.03-.18-.25-.46-.68h-1.2v.67s0,.01-.01.01h-.77s-.01,0-.01-.01v-2.45s0-.01.01-.01ZM275.19,139.72v.62h1.5c.16,0,.26-.07.3-.21,0-.03,0-.06,0-.09,0-.15-.06-.25-.19-.3-.04-.01-.08-.02-.12-.02h-1.51Z"/>
        </g>
        <g>
          <path class="cls-2" d="M309.06,119h.77s.01,0,.01.01v.54c0,.2.1.34.3.41.05,0,.08.01.12.01h1.39v-.96s0-.01.01-.01h.77s.01,0,.01.01v2.45s0,.01-.01.01h-.77s-.01,0-.01-.01v-.96h-1.82c-.27,0-.5-.11-.69-.34-.07-.11-.1-.22-.1-.32v-.83s0-.01.01-.01Z"/>
          <path class="cls-2" d="M313.45,119h2.62s.01,0,.01.01v.56s0,.01-.01.01h-2.19c-.2,0-.33.11-.4.33,0,.04,0,.07,0,.09v.48c0,.18.09.31.27.38.04.02.08.02.13.02h2.19s.01,0,.01,0v.56s0,.01-.01.01h-2.6c-.27,0-.49-.11-.67-.33-.08-.11-.12-.22-.12-.34v-1.15c0-.2.11-.38.34-.53.15-.08.29-.12.43-.12Z"/>
          <path class="cls-2" d="M316.31,119h2.59c.28,0,.5.11.67.32.08.12.12.24.12.35v.04c0,.19-.1.36-.29.51.15.12.24.25.26.37.02.04.02.09.02.16v.06c0,.25-.15.45-.44.59-.07.03-.16.05-.27.07h-2.67s-.01,0-.01-.01v-.56s0,0,.01,0h2.37c.12,0,.19-.04.22-.13,0-.03.01-.05.01-.06,0-.08-.04-.13-.12-.17-.02-.01-.05-.02-.09-.02h-1.72s-.01,0-.01-.01v-.51s0-.01.01-.01h1.72c.09,0,.16-.04.19-.12.01-.04.02-.06.02-.07-.03-.13-.09-.19-.18-.19,0,0-.01,0-.04,0h-2.38s-.01,0-.01-.01v-.56s0-.01.01-.01Z"/>
        </g>
        <g>
          <path class="cls-2" d="M369.42,85.8h.78l.91.98c.59-.64.89-.97.91-.98h.78s.01,0,.01.01c-.07.07-.51.54-1.3,1.41v1.03s0,.01-.01.01h-.77s-.01,0-.01-.01v-1.03l-1.3-1.42h.01Z"/>
          <path class="cls-2" d="M373.85,85.8h1.77c.35,0,.6.14.76.43.04.09.06.17.06.26v1.09c0,.25-.13.45-.39.59-.12.07-.27.1-.43.1h-1.77c-.31,0-.55-.12-.72-.36-.06-.1-.09-.21-.09-.33v-1.09c0-.25.13-.45.39-.59.12-.07.27-.1.43-.1ZM373.83,86.78v.49l1.43-.88h0s-1.03,0-1.03,0c-.18,0-.31.1-.38.29-.01.03-.02.06-.02.11ZM374.2,87.68h0s1.05,0,1.05,0c.18,0,.31-.1.38-.29.01-.03.02-.06.02-.11v-.5l-1.44.89Z"/>
        </g>
        <g>
          <path class="cls-2" d="M434.9,80.33h.77s.01,0,.01.01v1.44c0,.21.09.35.28.42.04.02.09.02.16.02h.95c.2,0,.34-.09.41-.28.01-.05.02-.1.02-.16v-1.43s0-.01.01-.01h.77s.01,0,.01.01v1.79c0,.24-.13.43-.4.58-.12.06-.25.09-.37.09h-1.88c-.22,0-.42-.09-.6-.28-.1-.12-.15-.25-.15-.39v-1.79s0-.01.01-.01Z"/>
          <path class="cls-2" d="M438.53,80.33h2.6c.24,0,.44.09.62.27.11.12.16.26.16.4v.45c0,.23-.13.42-.38.58l-.1.04.48.73h-.01s-.94,0-.94,0c-.02-.03-.18-.25-.46-.68h-1.2v.67s0,.01-.01.01h-.77s-.01,0-.01-.01v-2.45s0-.01.01-.01ZM439.31,80.92v.62h1.5c.16,0,.26-.07.3-.21,0-.03,0-.06,0-.09,0-.15-.06-.25-.19-.3-.04-.01-.08-.02-.12-.02h-1.51Z"/>
        </g>
        <g>
          <path class="cls-2" d="M461.95,55.17h2.62s.01,0,.01.01v.56s0,.01-.01.01h-2.39c-.13.02-.2.08-.2.19,0,.08.04.13.12.17.02.01.05.02.09.02h1.63c.23,0,.43.09.61.27.11.12.16.26.16.4v.17c0,.24-.14.44-.42.58-.12.05-.24.08-.36.08h-2.6s-.01,0-.01-.01v-.56s0,0,.01,0h2.38c.1,0,.16-.04.2-.13,0-.04,0-.06,0-.06,0-.08-.04-.13-.12-.17-.02-.01-.05-.02-.09-.02h-1.6c-.26,0-.49-.1-.66-.31-.08-.11-.13-.23-.13-.35v-.17c0-.23.12-.41.38-.56.14-.07.27-.1.39-.11Z"/>
          <path class="cls-2" d="M461.19,59.89h.77s.01,0,.01.01v.98l1.54-1h1.06c-.07.06-.5.34-1.3.85h0s1.3,1.61,1.3,1.61h0s-1.01,0-1.01,0c-.01,0-.33-.4-.96-1.17l-.63.4v.76s0,.01-.01.01h-.77s-.01,0-.01-.01v-2.45s0-.01.01-.01Z"/>
          <path class="cls-2" d="M462.2,64.6h.58c.27,0,.5.11.69.34.07.11.1.22.1.32v1.8s0,.01-.01.01h-.77s-.01,0-.01-.01v-1.59c0-.13-.07-.23-.21-.28-.03,0-.06,0-.09,0h-.28s-.01,0-.01-.01v-.56s0-.01.01-.01Z"/>
        </g>
        <g>
          <path class="cls-2" d="M495.03,70.41h.77s.01,0,.01.01v1.88h2.59s.01,0,.01,0v.56s0,.01-.01.01h-3.37s-.01,0-.01-.01v-2.45s0-.01.01-.01Z"/>
          <path class="cls-2" d="M498.66,70.41h.77s.01,0,.01.01v1.88h2.59s.01,0,.01,0v.56s0,.01-.01.01h-3.37s-.01,0-.01-.01v-2.45s0-.01.01-.01Z"/>
          <path class="cls-2" d="M503.04,70.41h2.62s.01,0,.01.01v.56s0,.01-.01.01h-2.39c-.13.02-.2.08-.2.19,0,.08.04.13.12.17.02.01.05.02.09.02h1.63c.23,0,.43.09.61.27.11.12.16.26.16.4v.17c0,.24-.14.44-.42.59-.12.05-.24.08-.36.08h-2.6s-.01,0-.01-.01v-.56s0,0,.01,0h2.38c.1,0,.16-.04.2-.13,0-.04,0-.06,0-.06,0-.08-.04-.13-.12-.17-.02-.01-.05-.02-.09-.02h-1.6c-.26,0-.49-.1-.66-.31-.08-.11-.13-.23-.13-.35v-.17c0-.23.12-.41.38-.56.14-.07.27-.1.39-.11Z"/>
        </g>
        <g>
          <path class="cls-2" d="M539.89,54.38h.58c.27,0,.5.11.69.34.07.11.1.22.1.32v1.8s0,.01-.01.01h-.77s-.01,0-.01-.01v-1.59c0-.13-.07-.23-.21-.28-.03,0-.06,0-.09,0h-.28s-.01,0-.01-.01v-.56s0-.01.01-.01Z"/>
          <path class="cls-2" d="M541.5,54.38h.77c.47.43,1.08.99,1.81,1.67h0v-1.66s0-.01.01-.01h.77s.01,0,.01.01v2.45s0,.01-.01.01h-.79l-1.81-1.66v1.65s0,.01-.01.01h-.77s-.01,0-.01-.01v-2.45s0-.01.01-.01Z"/>
          <path class="cls-2" d="M545.13,54.38h3.37s.01,0,.01.01v.56s0,.01-.01.01h-2.59v.38h1.92s.01,0,.01.01v.51s0,.01-.01.01h-1.92v.96s0,.01-.01.01h-.77s-.01,0-.01-.01v-2.45s0-.01.01-.01Z"/>
        </g>
        <g>
          <path class="cls-2" d="M567.65,54.38h3.37s.01,0,.01.01v.56s0,.01-.01.01h-2.59v.38h1.92s.01,0,.01.01v.51s0,.01-.01.01h-1.92v.96s0,.01-.01.01h-.77s-.01,0-.01-.01v-2.45s0-.01.01-.01Z"/>
          <path class="cls-2" d="M572.07,54.38h1.77c.35,0,.6.14.76.43.04.09.06.17.06.26v1.09c0,.25-.13.45-.39.59-.12.07-.27.1-.43.1h-1.77c-.31,0-.55-.12-.72-.36-.06-.1-.09-.21-.09-.33v-1.09c0-.25.13-.45.39-.59.12-.07.27-.1.43-.1ZM572.05,55.36v.49l1.43-.88h0s-1.04,0-1.04,0c-.18,0-.31.1-.38.29-.01.03-.02.06-.02.11ZM572.42,56.26h0s1.05,0,1.05,0c.18,0,.31-.1.38-.29.01-.03.02-.06.02-.11v-.5l-1.44.89Z"/>
        </g>
        <g>
          <path class="cls-2" d="M644.73,82.8h.78l.91.98c.59-.64.89-.97.91-.98h.78s.01,0,.01.01c-.07.07-.5.54-1.3,1.42v1.03s0,.01-.01.01h-.77s-.01,0-.01-.01v-1.03l-1.3-1.42h.01Z"/>
          <path class="cls-2" d="M649.17,82.8h1.77c.35,0,.6.14.76.43.04.09.06.17.06.26v1.09c0,.25-.13.45-.39.59-.12.07-.27.1-.43.1h-1.77c-.31,0-.55-.12-.72-.36-.06-.1-.09-.21-.09-.33v-1.09c0-.25.13-.45.39-.59.12-.07.27-.1.43-.1ZM649.14,83.78v.49l1.43-.88h0s-1.04,0-1.04,0c-.18,0-.31.1-.38.29-.01.03-.02.06-.02.11ZM649.51,84.68h0s1.05,0,1.05,0c.18,0,.31-.1.38-.29.01-.03.02-.06.02-.11v-.5l-1.44.89Z"/>
        </g>
        <g>
          <path class="cls-2" d="M686.05,82.8h.77s.01,0,.01.01v1.44c0,.21.09.35.28.42.04.02.09.02.16.02h.95c.2,0,.34-.09.41-.28.01-.05.02-.1.02-.16v-1.43s0-.01.01-.01h.77s.01,0,.01.01v1.79c0,.24-.13.43-.4.58-.12.06-.25.09-.37.09h-1.88c-.22,0-.42-.09-.6-.28-.1-.12-.15-.25-.15-.39v-1.79s0-.01.01-.01Z"/>
          <path class="cls-2" d="M689.67,82.8h2.6c.24,0,.44.09.62.27.11.12.16.26.16.4v.45c0,.23-.13.42-.38.58l-.1.04.48.73h-.01s-.94,0-.94,0c-.02-.03-.18-.25-.46-.68h-1.2v.67s0,.01-.01.01h-.77s-.01,0-.01-.01v-2.45s0-.01.01-.01ZM690.45,83.39v.62h1.5c.16,0,.26-.07.3-.21,0-.03,0-.06,0-.09,0-.15-.06-.25-.19-.3-.04-.01-.08-.02-.12-.02h-1.51Z"/>
        </g>
        <g>
          <path class="cls-2" d="M706.62,124.57h2.62s.01,0,.01.01v.56s0,.01-.01.01h-2.39c-.13.02-.2.08-.2.19,0,.08.04.13.12.17.02.01.05.02.09.02h1.63c.23,0,.43.09.61.27.11.12.16.26.16.4v.17c0,.24-.14.44-.42.58-.12.05-.24.08-.36.08h-2.6s-.01,0-.01-.01v-.56s0,0,.01,0h2.38c.1,0,.16-.04.2-.13,0-.04,0-.06,0-.06,0-.08-.04-.13-.12-.17-.02-.01-.05-.02-.09-.02h-1.6c-.26,0-.49-.1-.66-.31-.08-.11-.13-.23-.13-.35v-.17c0-.23.12-.41.38-.56.14-.07.27-.1.39-.11Z"/>
          <path class="cls-2" d="M709.49,124.57h2.59c.28,0,.5.11.68.32.08.12.12.24.12.35v.04c0,.19-.1.36-.29.51.15.12.24.25.26.37.02.04.02.09.02.16v.06c0,.25-.15.45-.44.59-.07.03-.16.05-.27.07h-2.67s-.01,0-.01-.01v-.56s0,0,.01,0h2.37c.12,0,.19-.04.22-.13,0-.03.01-.05.01-.06,0-.08-.04-.13-.12-.17-.02-.01-.05-.02-.09-.02h-1.72s-.01,0-.01-.01v-.51s0-.01.01-.01h1.72c.09,0,.16-.04.19-.12.01-.04.02-.06.02-.07-.03-.13-.09-.19-.18-.19,0,0-.01,0-.04,0h-2.38s-.01,0-.01-.01v-.56s0-.01.01-.01Z"/>
        </g>
        <g>
          <path class="cls-2" d="M743.31,124.57h.77s.01,0,.01.01v1.88h2.59s.01,0,.01,0v.56s0,.01-.01.01h-3.37s-.01,0-.01-.01v-2.45s0-.01.01-.01Z"/>
          <path class="cls-2" d="M746.94,124.57h3.37s.01,0,.01.01v.56s0,.01-.01.01h-2.59v.38h1.92s.01,0,.01.01v.51s0,.01-.01.01h-1.92v.96s0,.01-.01.01h-.77s-.01,0-.01-.01v-2.45s0-.01.01-.01Z"/>
        </g>
        <g>
          <g>
            <path class="cls-1" d="M150.49,124.91h.78l.91.98c.59-.64.89-.97.91-.98h.78s.01,0,.01.01c-.07.07-.51.54-1.3,1.41v1.03s0,.01-.01.01h-.77s-.01,0-.01-.01v-1.03l-1.3-1.42h.01Z"/>
            <path class="cls-1" d="M154.93,124.91h1.77c.35,0,.6.14.76.43.04.09.06.17.06.26v1.09c0,.25-.13.45-.39.59-.12.07-.27.1-.43.1h-1.77c-.31,0-.55-.12-.72-.36-.06-.1-.09-.21-.09-.33v-1.09c0-.25.13-.45.39-.59.12-.07.27-.1.43-.1ZM154.9,125.89v.49l1.43-.88h0s-1.03,0-1.03,0c-.18,0-.31.1-.38.29-.01.03-.02.06-.02.11ZM155.28,126.79h0s1.05,0,1.05,0c.18,0,.31-.1.38-.29.01-.03.02-.06.02-.11v-.5l-1.44.89Z"/>
          </g>
          <g>
            <path class="cls-1" d="M158.38,82.69h.77s.01,0,.01.01v1.44c0,.21.09.35.28.42.04.02.09.02.16.02h.95c.2,0,.34-.09.41-.28.01-.05.02-.1.02-.16v-1.43s0-.01.01-.01h.77s.01,0,.01.01v1.79c0,.24-.13.43-.4.58-.12.06-.25.09-.37.09h-1.88c-.22,0-.42-.09-.6-.28-.1-.12-.15-.25-.15-.39v-1.79s0-.01.01-.01Z"/>
            <path class="cls-1" d="M162,82.69h2.6c.24,0,.44.09.62.27.11.12.16.26.16.4v.45c0,.23-.13.42-.38.58l-.1.04.48.73h-.01s-.94,0-.94,0c-.02-.03-.18-.25-.46-.68h-1.2v.67s0,.01-.01.01h-.77s-.01,0-.01-.01v-2.45s0-.01.01-.01ZM162.78,83.28v.62h1.5c.16,0,.26-.07.3-.21,0-.03,0-.06,0-.09,0-.15-.06-.25-.19-.3-.04-.01-.08-.02-.12-.02h-1.51Z"/>
          </g>
          <g>
            <path class="cls-1" d="M246.09,128.55h.77s.01,0,.01.01v1.88h2.59s.01,0,.01,0v.56s0,.01-.01.01h-3.37s-.01,0-.01-.01v-2.45s0-.01.01-.01Z"/>
            <path class="cls-1" d="M247.1,133.26h.58c.27,0,.5.11.69.34.07.11.1.22.1.32v1.8s0,.01-.01.01h-.77s-.01,0-.01-.01v-1.59c0-.13-.07-.23-.21-.28-.03,0-.06,0-.09,0h-.28s-.01,0-.01-.01v-.56s0-.01.01-.01Z"/>
            <path class="cls-1" d="M246.09,137.98h3.37s.01,0,.01.01v.56s0,.01-.01.01h-2.59v.38h1.92s.01,0,.01.01v.51s0,.01-.01.01h-1.92v.96s0,.01-.01.01h-.77s-.01,0-.01-.01v-2.45s0-.01.01-.01Z"/>
            <path class="cls-1" d="M246.09,142.7h2.59c.28,0,.5.11.67.32.08.12.12.24.12.35v.04c0,.19-.1.36-.29.51.15.12.24.25.26.37.02.04.02.09.02.16v.06c0,.25-.15.45-.44.59-.07.03-.16.05-.27.07h-2.67s-.01,0-.01-.01v-.56s0,0,.01,0h2.37c.12,0,.19-.04.22-.13,0-.03.01-.05.01-.06,0-.08-.04-.13-.12-.17-.02-.01-.05-.02-.09-.02h-1.72s-.01,0-.01-.01v-.51s0-.01.01-.01h1.72c.09,0,.16-.04.19-.12.01-.04.02-.06.02-.07-.03-.13-.09-.19-.18-.19,0,0-.01,0-.04,0h-2.38s-.01,0-.01-.01v-.56s0-.01.01-.01Z"/>
          </g>
          <path class="cls-1" d="M191.14,128h-1.4s-.22-.62-.51-1.14c-.02-.03-.38-.63-1.07-1.86h0c-1.03,1.8-1.58,3-1.58,3h-1.41s.38-.67,1.13-1.92c.59-1,1-1.7,1.23-2.08h1.28c.06.09.83,1.4,2.32,3.93,0,0,.02.02.04.07Z"/>
          <path class="cls-1" d="M191.05,123h-1.4s-.22-.04-.51-.57c-.02-.03-.38-.63-1.07-2.43h0c-1.03,2.38-1.58,3-1.58,3h-1.41s.38-.67,1.13-1.92c.59-1,1-1.7,1.23-2.08h1.28c.06.09.83,1.4,2.32,3.93,0,0,.02.02.04.07Z"/>
          <path class="cls-1" d="M191.01,119h-1.4s-.22-.39-.51-.91c-.02-.03-.38-.63-1.07-2.09h0c-1.03,2.04-1.58,3-1.58,3h-1.41s.38-.67,1.13-1.92c.59-1,1-1.7,1.23-2.08h1.28c.06.09.83,1.4,2.32,3.93,0,0,.02.02.04.07Z"/>
          <g>
            <polygon class="cls-2" points="43.47 148 164.46 1 192.46 1 71.28 148 43.47 148"/>
            <path class="cls-1" d="M138.61,82h19v4h-19v-4ZM191.59,1h25.23c.35,1.45,8.46,28.45,24.34,81h4.45v49h-10v4h10v10h-28v-30h-33v13h-14v21h-25v-1h2v-20h10v-42h8.47L191.59,1ZM203.61,43v.22c-2.19,11.75-6.42,30.34-12.69,55.78h23.69v-17h-2.01c-5.64-23.87-8.46-36.87-8.46-39h-.53ZM218.61,147h33v2h-33v-2Z"/>
            <path class="cls-1" d="M93.61,81v44h44v13h-9v3h9v9h-28v-2h-40.46c0-.54.46-4.27.46-4.27v-33.73h4v-4h-4v-11M69.61,96l.25-29.92,31.11-19.84-1.85,14.76-5.51.02v20.98M137.61,139h11v3h-11v-3Z"/>
            <path class="cls-2" d="M0,148L120.99,1h28.01L27.81,148H0Z"/>
          </g>
        </g>
      </g>
      <g>
        <path class="cls-2" d="M33.61,154v33H.61v-33h33ZM21.68,162l-4.84,12.6-4.89-12.6h-4.11l7.2,18h3.6l7.2-18h-4.16Z"/>
        <path class="cls-2" d="M57.61,162v18h-4v-18h4Z"/>
        <path class="cls-2" d="M98.61,169v-4h-11v15h-3v-18h18v11h-6.18l6.18,7h-4.86l-9.68-11h10.54Z"/>
        <path class="cls-2" d="M125.61,161h16l-4,4h-4v15h-4v-15h-8l4-4Z"/>
        <path class="cls-2" d="M164.61,162v14h11v-14h4v18h-18v-18h3Z"/>
        <path class="cls-2" d="M213.48,180l-4.89-12.6-4.89,12.6h-4.11l7.2-18h3.6l7.2,18h-4.11Z"/>
        <path class="cls-2" d="M253.61,180h-16v-18h4v14h16l-4,4Z"/>
        <path class="cls-2" d="M340.61,154v33h-33v-33h33ZM314.61,162v18h4v-7h10v7h4v-18h-4v7h-10v-7h-4Z"/>
        <path class="cls-2" d="M356.61,169h16l-4,4h-12v3h16l-4,4h-16v-19h20l-4,4h-12v4Z"/>
        <path class="cls-2" d="M405.23,180l-4.89-12.6-4.89,12.6h-4.11l7.2-18h3.6l7.2,18h-4.11Z"/>
        <path class="cls-2" d="M444.01,162l3.6,3.6v14.4h-18v-18h14.4ZM433.61,176h11v-11h-11v11Z"/>
        <path class="cls-2" d="M493.61,154v33h-33v-33h33ZM479.61,184h5.12l-4-4h4.88v-18h-18v18h8l4,4ZM471.61,176v-11h11v11h-11Z"/>
        <path class="cls-2" d="M509.61,162v14h11v-14h4v18h-18v-18h3Z"/>
        <path class="cls-2" d="M558.63,180l-4.89-12.6-4.89,12.6h-4.11l7.2-18h3.6l7.2,18h-4.11Z"/>
        <path class="cls-2" d="M597.61,169v-4h-11v15h-4v-18h18v11h-6.18l6.18,7h-3.86l-9.68-11h10.54Z"/>
        <path class="cls-2" d="M624.61,161h16l-4,4h-4v15h-4v-15h-8l4-4Z"/>
        <path class="cls-2" d="M663.61,169h16l-4,4h-12v3h16l-4,4h-16v-19h20l-4,4h-12v4Z"/>
        <path class="cls-2" d="M712.61,169v-4h-11v15h-3v-18h18v11h-6.18l6.18,7h-4.86l-9.68-11h10.54Z"/>
        <path class="cls-2" d="M752.61,165h-13v4h15v11h-20l4-4h13v-4h-15v-11h20l-4,4Z"/>
      </g>
    </g>
    <g>
      <path class="cls-1" d="M138.15,120.38h3.37s.01,0,.01.01v.56s0,.01-.01.01h-2.59v.38h1.92s.01,0,.01.01v.51s0,.01-.01.01h-1.92v.96s0,.01-.01.01h-.77s-.01,0-.01-.01v-2.45s0-.01.01-.01Z"/>
      <path class="cls-1" d="M138.15,125.19h2.6c.24,0,.44.09.62.27.11.12.16.26.16.4v.45c0,.23-.13.42-.38.58l-.1.04.48.73h-.01s-.94,0-.94,0c-.02-.03-.18-.25-.46-.68h-1.2v.67s0,.01-.01.01h-.77s-.01,0-.01-.01v-2.45s0-.01.01-.01ZM138.93,125.78v.62h1.5c.16,0,.26-.07.3-.21,0-.03,0-.06,0-.09,0-.15-.06-.25-.19-.3-.04-.01-.08-.02-.12-.02h-1.51Z"/>
      <path class="cls-1" d="M138.15,129.91h2.59c.28,0,.5.11.67.32.08.12.12.24.12.35v.04c0,.19-.1.36-.29.51.15.12.24.25.26.37.02.04.02.09.02.16v.05c0,.25-.15.45-.44.59-.07.03-.16.05-.27.07h-2.67s-.01,0-.01-.01v-.56s0,0,.01,0h2.37c.12,0,.19-.04.22-.13,0-.03.01-.05.01-.06,0-.08-.04-.13-.12-.17-.02-.01-.05-.02-.09-.02h-1.72s-.01,0-.01-.01v-.51s0-.01.01-.01h1.72c.09,0,.16-.04.19-.12.01-.04.02-.06.02-.07-.03-.13-.09-.19-.18-.19,0,0-.01,0-.04,0h-2.38s-.01,0-.01-.01v-.56s0-.01.01-.01Z"/>
      <path class="cls-1" d="M138.15,134.63h2.59c.28,0,.5.11.67.32.08.12.12.24.12.35v.04c0,.19-.1.36-.29.51.15.12.24.25.26.37.02.04.02.09.02.16v.06c0,.25-.15.45-.44.59-.07.03-.16.05-.27.07h-2.67s-.01,0-.01-.01v-.56s0,0,.01,0h2.37c.12,0,.19-.04.22-.13,0-.03.01-.05.01-.06,0-.08-.04-.13-.12-.17-.02-.01-.05-.02-.09-.02h-1.72s-.01,0-.01-.01v-.51s0-.01.01-.01h1.72c.09,0,.16-.04.19-.12.01-.04.02-.06.02-.07-.03-.13-.09-.19-.18-.19,0,0-.01,0-.04,0h-2.38s-.01,0-.01-.01v-.56s0-.01.01-.01Z"/>
    </g>
  </g>
</svg>