<?xml version="1.0" encoding="UTF-8"?>
<svg id="Layer_2" data-name="Layer 2" xmlns="http://www.w3.org/2000/svg" viewBox="0 0 312.1 149.05">
  <defs>
    <style>
      .cls-1 {
        fill: #ca2026;
      }

      .cls-2 {
        fill: #fcfdff;
      }
    </style>
  </defs>
  <g id="Layer_1_copy" data-name="Layer 1 copy">
    <g id="LA_VHQ_W">
      <g>
        <path class="cls-1" d="M150.25,123.96h.78l.91.98c.59-.64.89-.97.91-.98h.78s.01,0,.01.01c-.07.07-.51.54-1.3,1.41v1.03s0,.01-.01.01h-.77s-.01,0-.01-.01v-1.03l-1.3-1.42h.01Z"/>
        <path class="cls-1" d="M154.68,123.96h1.77c.35,0,.6.14.76.43.04.09.06.17.06.26v1.09c0,.25-.13.45-.39.59-.12.07-.27.1-.43.1h-1.77c-.31,0-.55-.12-.72-.36-.06-.1-.09-.21-.09-.33v-1.09c0-.25.13-.45.39-.59.12-.07.27-.1.43-.1ZM154.66,124.95v.49l1.43-.88h0s-1.03,0-1.03,0c-.18,0-.31.1-.38.29-.01.03-.02.06-.02.11ZM155.03,125.84h0s1.05,0,1.05,0c.18,0,.31-.1.38-.29.01-.03.02-.06.02-.11v-.5l-1.44.89Z"/>
      </g>
      <g>
        <path class="cls-1" d="M158.13,81.75h.77s.01,0,.01.01v1.44c0,.21.09.35.28.42.04.02.09.02.16.02h.95c.2,0,.34-.09.41-.28.01-.05.02-.1.02-.16v-1.43s0-.01.01-.01h.77s.01,0,.01.01v1.79c0,.24-.13.43-.4.58-.12.06-.25.09-.37.09h-1.88c-.22,0-.42-.09-.6-.28-.1-.12-.15-.25-.15-.39v-1.79s0-.01.01-.01Z"/>
        <path class="cls-1" d="M161.76,81.75h2.6c.24,0,.44.09.62.27.11.12.16.26.16.4v.45c0,.23-.13.42-.38.58l-.1.04.48.73h-.01s-.94,0-.94,0c-.02-.03-.18-.25-.46-.68h-1.2v.67s0,.01-.01.01h-.77s-.01,0-.01-.01v-2.45s0-.01.01-.01ZM162.53,82.34v.62h1.5c.16,0,.26-.07.3-.21,0-.03,0-.06,0-.09,0-.15-.06-.25-.19-.3-.04-.01-.08-.02-.12-.02h-1.51Z"/>
      </g>
      <g>
        <path class="cls-1" d="M245.85,127.6h.77s.01,0,.01.01v1.88h2.59s.01,0,.01,0v.56s0,.01-.01.01h-3.37s-.01,0-.01-.01v-2.45s0-.01.01-.01Z"/>
        <path class="cls-1" d="M246.85,132.32h.58c.27,0,.5.11.69.34.07.11.1.22.1.32v1.8s0,.01-.01.01h-.77s-.01,0-.01-.01v-1.59c0-.13-.07-.23-.21-.28-.03,0-.06,0-.09,0h-.28s-.01,0-.01-.01v-.56s0-.01.01-.01Z"/>
        <path class="cls-1" d="M245.85,137.04h3.37s.01,0,.01.01v.56s0,.01-.01.01h-2.59v.38h1.92s.01,0,.01.01v.51s0,.01-.01.01h-1.92v.96s0,.01-.01.01h-.77s-.01,0-.01-.01v-2.45s0-.01.01-.01Z"/>
        <path class="cls-1" d="M245.85,141.76h2.59c.28,0,.5.11.67.32.08.12.12.24.12.35v.04c0,.19-.1.36-.29.51.15.12.24.25.26.37.02.04.02.09.02.16v.06c0,.25-.15.45-.44.59-.07.03-.16.05-.27.07h-2.67s-.01,0-.01-.01v-.56s0,0,.01,0h2.37c.12,0,.19-.04.22-.13,0-.03.01-.05.01-.06,0-.08-.04-.13-.12-.17-.02-.01-.05-.02-.09-.02h-1.72s-.01,0-.01-.01v-.51s0-.01.01-.01h1.72c.09,0,.16-.04.19-.12.01-.04.02-.06.02-.07-.03-.13-.09-.19-.18-.19,0,0-.01,0-.04,0h-2.38s-.01,0-.01-.01v-.56s0-.01.01-.01Z"/>
      </g>
      <path class="cls-1" d="M191.02,126.77h-1.53c-.05-.05-.22-.34-.51-.86-.02-.03-.38-.63-1.07-1.81h0c-1.03,1.76-1.56,2.65-1.58,2.67h-1.54s.39-.69,1.18-2c.61-1.05,1.04-1.77,1.28-2.16h1.33c.06.09.87,1.46,2.41,4.09,0,0,.02.03.04.07Z"/>
      <path class="cls-1" d="M190.93,122.35h-1.53c-.05-.05-.22-.34-.51-.86-.02-.03-.38-.63-1.07-1.81h0c-1.03,1.76-1.56,2.65-1.58,2.67h-1.54s.39-.69,1.18-2c.61-1.05,1.04-1.77,1.28-2.16h1.33c.06.09.87,1.46,2.41,4.09,0,0,.02.03.04.07Z"/>
      <path class="cls-1" d="M190.9,118.01h-1.53c-.05-.05-.22-.34-.51-.86-.02-.03-.38-.63-1.07-1.81h0c-1.03,1.76-1.56,2.65-1.58,2.67h-1.54s.39-.69,1.18-2c.61-1.05,1.04-1.77,1.28-2.16h1.33c.06.09.87,1.46,2.41,4.09,0,0,.02.03.04.07Z"/>
      <g>
        <polygon class="cls-2" points="43.47 146.52 164.06 0 191.98 0 71.19 146.52 43.47 146.52"/>
        <path class="cls-1" d="M138.1,80.87h19.49v4.46h-19.49v-4.46ZM191.7,0h24.99c.35,1.45,8.47,28.48,24.37,81.08h4.46v48.84h-10.26v3.84h10.26v10.47h-27.58v-30.07h-33.8v12.75h-13.69v21.57h-25.09v-1.45h1.97v-20.11h10.26v-41.58h8.5L191.7,0ZM203.42,41.79v.31c-2.14,11.75-6.29,30.34-12.44,55.78h23.23v-16.8h-1.97c-5.53-24.05-8.29-37.15-8.29-39.3h-.52ZM217.93,145.99h33.39v2.49h-33.39v-2.49Z"/>
        <path class="cls-1" d="M93.14,80.3v43.83h44.63v13.17h-8.86v3.01h8.86v8.5h-28.91v-2.28h-39.95s.07-2.9.07-3.73v-33.18h4.24v-4.46h-4.24v-11.25M68.98,94.49l.25-29.42,31.32-19.84-1.86,14.76-5.55.02v20.76M137.77,137.8h10.97v3.03h-10.97v-3.03Z"/>
        <g>
          <path class="cls-1" d="M138.39,120.56h3.37s.01,0,.01.01v.56s0,.01-.01.01h-2.59v.38h1.92s.01,0,.01.01v.51s0,.01-.01.01h-1.92v.96s0,.01-.01.01h-.77s-.01,0-.01-.01v-2.45s0-.01.01-.01Z"/>
          <path class="cls-1" d="M138.39,125.37h2.6c.24,0,.44.09.62.27.11.12.16.26.16.4v.45c0,.23-.13.42-.38.58l-.1.04.48.73h-.01s-.94,0-.94,0c-.02-.03-.18-.25-.46-.68h-1.2v.67s0,.01-.01.01h-.77s-.01,0-.01-.01v-2.45s0-.01.01-.01ZM139.17,125.96v.62h1.5c.16,0,.26-.07.3-.21,0-.03,0-.06,0-.09,0-.15-.06-.25-.19-.3-.04-.01-.08-.02-.12-.02h-1.51Z"/>
          <path class="cls-1" d="M138.39,130.09h2.59c.28,0,.5.11.67.32.08.12.12.24.12.35v.04c0,.19-.1.36-.29.51.15.12.24.25.26.37.02.04.02.09.02.16v.05c0,.25-.15.45-.44.59-.07.03-.16.05-.27.07h-2.67s-.01,0-.01-.01v-.56s0,0,.01,0h2.37c.12,0,.19-.04.22-.13,0-.03.01-.05.01-.06,0-.08-.04-.13-.12-.17-.02-.01-.05-.02-.09-.02h-1.72s-.01,0-.01-.01v-.51s0-.01.01-.01h1.72c.09,0,.16-.04.19-.12.01-.04.02-.06.02-.07-.03-.13-.09-.19-.18-.19,0,0-.01,0-.04,0h-2.38s-.01,0-.01-.01v-.56s0-.01.01-.01Z"/>
          <path class="cls-1" d="M138.39,134.81h2.59c.28,0,.5.11.67.32.08.12.12.24.12.35v.04c0,.19-.1.36-.29.51.15.12.24.25.26.37.02.04.02.09.02.16v.06c0,.25-.15.45-.44.59-.07.03-.16.05-.27.07h-2.67s-.01,0-.01-.01v-.56s0,0,.01,0h2.37c.12,0,.19-.04.22-.13,0-.03.01-.05.01-.06,0-.08-.04-.13-.12-.17-.02-.01-.05-.02-.09-.02h-1.72s-.01,0-.01-.01v-.51s0-.01.01-.01h1.72c.09,0,.16-.04.19-.12.01-.04.02-.06.02-.07-.03-.13-.09-.19-.18-.19,0,0-.01,0-.04,0h-2.38s-.01,0-.01-.01v-.56s0-.01.01-.01Z"/>
        </g>
        <path class="cls-2" d="M0,146.52L120.59,0h27.92L27.72,146.52H0Z"/>
      </g>
      <g>
        <path class="cls-2" d="M312.1.62v53.44h-53.44V.62h53.44ZM293.36,12.49l-7.98,20.78-8.07-20.78h-6.77l11.88,29.69h5.94l11.88-29.69h-6.87Z"/>
        <path class="cls-2" d="M312.1,48.12v53.44h-53.44v-53.44h53.44ZM270.54,59.99v29.69h5.94v-11.88h17.81v11.88h5.94v-29.69h-5.94v11.88h-17.81v-11.88h-5.94Z"/>
        <path class="cls-2" d="M312.1,95.62v53.44h-53.44v-53.44h53.44ZM288.35,143.12h7.61l-5.94-5.94h10.21v-29.69h-29.69v29.69h11.88l5.94,5.94ZM276.48,131.24v-17.81h17.81v17.81h-17.81Z"/>
      </g>
    </g>
  </g>
</svg>